<svg xmlns="http://www.w3.org/2000/svg" width="24" height="12" viewBox="0 6 24 12" fill="currentColor">
    <path d="M13.2139 11.4343h7.6266A2.0144 2.0144 90 0022.8549 9.4211h0A2.0144 2.0144 90 0020.8405 7.4067h-7.6266A2.0144 2.0144 90 0011.1995 9.4211h0A2.0144 2.0144 90 0013.2139 11.4343Zm-10.032 5.13h8.7666A2.0144 2.0144 90 0013.9629 14.5511h0A2.0144 2.0144 90 0011.9485 12.5367H3.1819A2.0144 2.0144 90 001.1675 14.5511H1.1675A2.0144 2.0144 90 003.1819 16.5643ZM2.3542 11.3614h.8892V8.1124h1.1514V7.3235H1.2028v.7866h1.1514Zm3.2034 0h.8892V8.264h.0114l1.026 3.0951h.684l1.0602-3.0951h.0114V11.3591h.8892V7.3235H8.7781l-.9348 2.6334h-.0114L6.9028 7.3235H5.5576ZM18.5445 13.6699a1.718 1.718 90 00-.5153-.6293 2.117 2.117 90 00-.7615-.3511 3.8236 3.8236 90 00-.92-.114h-1.3338v4.0356h1.4535a2.8021 2.8021 90 00.8607-.1311A2.2048 2.2048 90 0018.052 16.1015a1.8548 1.8548 90 00.4982-.627 1.9277 1.9277 90 00.1858-.8641A2.109 2.109 90 0018.5445 13.6699ZM17.6975 15.1439A1.0032 1.0032 90 0117.3965 15.5315a1.2198 1.2198 90 01-.456.2075 2.459 2.459 90 01-.57.0627h-.4617v-2.394h.5244a1.938 1.938 90 01.5324.0718 1.3292 1.3292 90 01.4423.2132A1.042 1.042 90 0117.6975 14.0495a1.1252 1.1252 90 01.114.5153A1.3555 1.3555 90 0117.6975 15.1439Zm5.0878-.0148a.912.912 90 00-.1801-.2987A.9553.9553 90 0022.3293 14.6195a1.1753 1.1753 90 00-.3614-.114v-.0114a1.0511 1.0511 90 00.5039-.3215.847.847 90 00.1915-.57.9599.9599 90 00-.1311-.5301.9223.9223 90 00-.342-.3101 1.4318 1.4318 90 00-.4765-.1482 3.7438 3.7438 90 00-.5267-.0376h-1.5048v4.0356h1.653a2.5547 2.5547 90 00.5381-.057 1.5424 1.5424 90 00.4879-.1881 1.0739 1.0739 90 00.3534-.342.9713.9713 90 00.1368-.5335A1.0705 1.0705 90 0022.7887 15.1291ZM20.5714 13.3336h.6042a1.14 1.14 90 01.2109.0205.7045.7045 90 01.1938.065.3865.3865 90 01.1391.1288.3671.3671 90 01.0547.2075.4138.4138 90 01-.049.2052.3876.3876 90 01-.1277.1368.5609.5609 90 01-.1801.0741.8561.8561 90 01-.2018.0228h-.6441Zm1.3361 2.28a.4446.4446 90 01-.1391.1482.529.529 90 01-.1915.0798.9325.9325 90 01-.2075.0228h-.798v-.912h.6726a1.7499 1.7499 90 01.228.0171.9656.9656 90 01.2337.0627.456.456 90 01.179.1345.3545.3545 90 01.0718.228A.4229.4229 90 0121.9075 15.6136Z"></path>
</svg>
